<svg width="18" height="18" viewBox="0 0 18 18" fill="none" xmlns="http://www.w3.org/2000/svg">
<path d="M9 0C13.9705 0 18 4.02949 18 9C18 13.9705 13.9705 18 9 18C4.02949 18 0 13.9705 0 9C0 4.02949 4.02949 0 9 0ZM9 1.5C4.85801 1.5 1.5 4.85801 1.5 9C1.5 11.1385 2.39501 13.0675 3.82999 14.434L6.3735 11.4015C6.8016 11.6989 7.27723 11.9213 7.77998 12.059L5.016 15.3555C6.20933 16.1054 7.59059 16.5022 9 16.5C10.328 16.5022 11.6325 16.1501 12.779 15.48L9.96251 12.1215C10.4806 12.0115 10.9758 11.8126 11.426 11.5335L13.9945 14.595C14.7836 13.8922 15.4148 13.0303 15.8466 12.0659C16.2785 11.1015 16.5012 10.0566 16.5 9C16.5 4.85801 13.142 1.5 9 1.5ZM9 4.00001C9.79671 3.99969 10.5712 4.26286 11.2027 4.74853C11.8343 5.2342 12.2875 5.9151 12.4918 6.68517C12.696 7.45525 12.6399 8.27126 12.3321 9.00611C12.0243 9.74096 11.4821 10.3534 10.79 10.748L10.775 10.7565L10.7585 10.766C10.7204 10.7872 10.6819 10.8077 10.643 10.8275L10.775 10.7565C10.2334 11.0623 9.62193 11.2227 9 11.222C8.53345 11.2227 8.07121 11.1327 7.63898 10.957L7.63399 10.955C7.58945 10.9367 7.54527 10.9176 7.5015 10.8975L7.6395 10.9575C7.46964 10.8883 7.30533 10.8063 7.14802 10.712C6.46907 10.3069 5.94184 9.69016 5.64726 8.95647C5.35268 8.22278 5.30704 7.41269 5.51733 6.65056C5.72762 5.88842 6.18222 5.21636 6.81136 4.73755C7.44049 4.25873 8.20938 3.99963 9 4.00001ZM9 5.50001C8.72194 5.4987 8.44637 5.55233 8.1891 5.65783C7.93183 5.76333 7.69794 5.91862 7.50086 6.11477C7.30378 6.31093 7.14739 6.54408 7.04068 6.80085C6.93397 7.05762 6.87904 7.33294 6.87904 7.611C6.87904 7.88906 6.93397 8.16438 7.04068 8.42115C7.14739 8.67792 7.30378 8.91107 7.50086 9.10723C7.69794 9.30338 7.93183 9.45867 8.1891 9.56417C8.44637 9.66967 8.72194 9.7233 9 9.72199C9.55815 9.71936 10.0925 9.4958 10.4863 9.10019C10.88 8.70459 11.1011 8.16915 11.1011 7.611C11.1011 7.05285 10.88 6.51741 10.4863 6.12181C10.0925 5.7262 9.55815 5.50264 9 5.50001Z"/>
</svg>
