<svg width="24" height="24" viewBox="0 0 24 24" fill="none" xmlns="http://www.w3.org/2000/svg">
<path fill-rule="evenodd" clip-rule="evenodd" d="M12 22C17.5228 22 22 17.5228 22 12C22 6.47715 17.5228 2 12 2C6.47715 2 2 6.47715 2 12C2 17.5228 6.47715 22 12 22ZM13 6.5C13 6.08579 12.6642 5.75 12.25 5.75C11.8358 5.75 11.5 6.08579 11.5 6.5V12C11.5 12.2329 11.6082 12.4525 11.7927 12.5945L15.0427 15.0945C15.371 15.347 15.8419 15.2856 16.0945 14.9573C16.347 14.629 16.2856 14.1581 15.9573 13.9055L13 11.6307V6.5Z" fill="#B8C2CF"/>
</svg>
