<svg width="16" height="16" viewBox="0 0 24 24" fill="none" xmlns="http://www.w3.org/2000/svg">
<path d="M3.29244 3.29244C2.90252 3.68236 2.90252 4.31454 3.29244 4.70446L10.5879 11.9999L3.29244 19.2953C2.90252 19.6852 2.90252 20.3174 3.29244 20.7073C3.68236 21.0972 4.31454 21.0972 4.70446 20.7073L11.9999 13.4119L19.2953 20.7073C19.6852 21.0972 20.3174 21.0972 20.7073 20.7073C21.0972 20.3174 21.0972 19.6852 20.7073 19.2953L13.4119 11.9999L20.7073 4.70446C21.0972 4.31454 21.0972 3.68236 20.7073 3.29244C20.3174 2.90252 19.6852 2.90252 19.2953 3.29244L11.9999 10.5879L4.70446 3.29244C4.31454 2.90252 3.68236 2.90252 3.29244 3.29244Z" fill="#B8C2CF"/>
<path d="M3.29244 4.70446L3.11566 4.88123L3.29244 4.70446ZM10.5879 11.9999L10.7646 12.1767L10.9414 11.9999L10.7646 11.8231L10.5879 11.9999ZM3.29244 19.2953L3.46922 19.4721L3.29244 19.2953ZM4.70446 20.7073L4.88123 20.8841L4.70446 20.7073ZM11.9999 13.4119L12.1767 13.2351L11.9999 13.0583L11.8231 13.2351L11.9999 13.4119ZM19.2953 20.7073L19.4721 20.5305L19.2953 20.7073ZM20.7073 19.2953L20.8841 19.1185L20.7073 19.2953ZM13.4119 11.9999L13.2351 11.8231L13.0583 11.9999L13.2351 12.1767L13.4119 11.9999ZM20.7073 4.70446L20.8841 4.88123L20.7073 4.70446ZM19.2953 3.29244L19.4721 3.46921V3.46921L19.2953 3.29244ZM11.9999 10.5879L11.8231 10.7646L11.9999 10.9414L12.1767 10.7646L11.9999 10.5879ZM4.70446 3.29244L4.52768 3.46921L4.70446 3.29244ZM3.46921 4.52768C3.17693 4.23539 3.17693 3.7615 3.46922 3.46921L3.11566 3.11566C2.62811 3.60321 2.62811 4.39368 3.11566 4.88123L3.46921 4.52768ZM10.7646 11.8231L3.46921 4.52768L3.11566 4.88123L10.4111 12.1767L10.7646 11.8231ZM3.46922 19.4721L10.7646 12.1767L10.4111 11.8231L3.11566 19.1185L3.46922 19.4721ZM3.46922 20.5305C3.17693 20.2383 3.17693 19.7644 3.46922 19.4721L3.11566 19.1185C2.62811 19.6061 2.62811 20.3965 3.11566 20.8841L3.46922 20.5305ZM4.52768 20.5305C4.23539 20.8228 3.7615 20.8228 3.46922 20.5305L3.11566 20.8841C3.60321 21.3716 4.39368 21.3716 4.88123 20.8841L4.52768 20.5305ZM11.8231 13.2351L4.52768 20.5305L4.88123 20.8841L12.1767 13.5887L11.8231 13.2351ZM19.4721 20.5305L12.1767 13.2351L11.8231 13.5887L19.1185 20.8841L19.4721 20.5305ZM20.5305 20.5305C20.2383 20.8228 19.7644 20.8228 19.4721 20.5305L19.1185 20.8841C19.6061 21.3716 20.3965 21.3716 20.8841 20.8841L20.5305 20.5305ZM20.5305 19.4721C20.8228 19.7644 20.8228 20.2383 20.5305 20.5305L20.8841 20.8841C21.3716 20.3965 21.3716 19.6061 20.8841 19.1185L20.5305 19.4721ZM13.2351 12.1767L20.5305 19.4721L20.8841 19.1185L13.5887 11.8231L13.2351 12.1767ZM20.5305 4.52768L13.2351 11.8231L13.5887 12.1767L20.8841 4.88123L20.5305 4.52768ZM20.5305 3.46921C20.8228 3.7615 20.8228 4.23539 20.5305 4.52768L20.8841 4.88123C21.3716 4.39368 21.3716 3.60321 20.8841 3.11566L20.5305 3.46921ZM19.4721 3.46921C19.7644 3.17693 20.2383 3.17693 20.5305 3.46921L20.8841 3.11566C20.3965 2.62811 19.6061 2.62811 19.1185 3.11566L19.4721 3.46921ZM12.1767 10.7646L19.4721 3.46921L19.1185 3.11566L11.8231 10.4111L12.1767 10.7646ZM4.52768 3.46921L11.8231 10.7646L12.1767 10.4111L4.88123 3.11566L4.52768 3.46921ZM3.46922 3.46921C3.7615 3.17693 4.23539 3.17693 4.52768 3.46921L4.88123 3.11566C4.39368 2.62811 3.60321 2.62811 3.11566 3.11566L3.46922 3.46921Z" fill="#B8C2CF"/>
</svg>
