<svg width="14" height="14" viewBox="0 0 14 14" fill="none" xmlns="http://www.w3.org/2000/svg">
<path d="M12.9094 0.796875H1.09063C0.764063 0.796875 0.5 1.06094 0.5 1.3875V1.97813C0.5 2.30469 0.764063 2.56875 1.09063 2.56875H12.9094C13.2359 2.56875 13.5 2.30469 13.5 1.97813V1.3875C13.5 1.06094 13.2359 0.796875 12.9094 0.796875ZM12.9094 6.11406H5.22656C4.9 6.11406 4.63594 6.37813 4.63594 6.70469V7.29531C4.63594 7.62188 4.9 7.88594 5.22656 7.88594H12.9078C13.2344 7.88594 13.4984 7.62188 13.4984 7.29531V6.70469C13.5 6.37813 13.2359 6.11406 12.9094 6.11406ZM12.9094 11.4312H1.09063C0.764063 11.4312 0.5 11.6953 0.5 12.0219V12.6125C0.5 12.9391 0.764063 13.2031 1.09063 13.2031H12.9094C13.2359 13.2031 13.5 12.9391 13.5 12.6125V12.0219C13.5 11.6953 13.2359 11.4312 12.9094 11.4312ZM3.15938 8.38594V5.61406C3.15938 5.27031 2.70312 5.09687 2.4375 5.34062L0.920313 6.72656C0.754688 6.87813 0.754688 7.12187 0.920313 7.27344L2.4375 8.65938C2.70312 8.90156 3.15938 8.72969 3.15938 8.38594Z" fill="#B8C2CF"/>
</svg>
