<svg width="32" height="32" viewBox="0 0 32 32" fill="none" xmlns="http://www.w3.org/2000/svg">
<rect width="32" height="32" fill="#22293D"/>
<path d="M9.5008 4.5H19.2324L19.23 4.5024H20.4376H22.4992C25.1942 4.5024 27.3696 6.53205 27.4934 9.02759L27.5 9.16024V22.8388L27.4934 22.9712C27.404 24.7695 26.2539 26.3216 24.6053 27.0533C23.9402 27.3483 23.2205 27.5001 22.4929 27.4988H22.492H9.5008H9.5006C6.80563 27.4999 4.63044 25.4714 4.50659 22.976L4.5 22.8433V9.1628L4.5066 9.02854C4.62939 6.52957 6.80582 4.5 9.5008 4.5ZM5.91918 7.55174L5.91874 7.55259C5.65292 8.06624 5.5028 8.64517 5.5028 9.2572V22.7464C5.5028 24.8863 7.32093 26.5884 9.5044 26.5884H22.492C24.6755 26.5884 26.4936 24.8863 26.4936 22.7464V9.2572C26.4936 7.11359 24.6754 5.414 22.492 5.414H9.5008C8.28729 5.414 7.1918 5.93914 6.45649 6.77051C6.246 7.00788 6.06554 7.27026 5.91918 7.55174ZM16.562 14.938V15.438H17.062H20.3V16.5656H17.0632H16.5632V17.0656V20.3012H15.4344V17.0656V16.5656H14.9344H11.6988V15.438H14.9344H15.4344V14.938V11.7H16.562V14.938Z" fill="white" stroke="white"/>
</svg>
