<svg width="32" height="32" viewBox="0 0 32 32" fill="none" xmlns="http://www.w3.org/2000/svg">
<path d="M15.8506 28.6401C9.14273 28.6401 3.70123 23.1788 3.70123 16.4907C3.70123 9.78281 9.16252 4.34131 15.8506 4.34131C22.5585 4.34131 28 9.80259 28 16.4907C28 23.1986 22.5387 28.6401 15.8506 28.6401ZM15.8506 6.32004C10.231 6.32004 5.67996 10.8909 5.67996 16.4907C5.67996 22.0905 10.2508 26.6613 15.8506 26.6613C21.4504 26.6613 26.0213 22.0905 26.0213 16.4907C26.0213 10.8909 21.4504 6.32004 15.8506 6.32004Z" fill="white"/>
<path d="M11.3975 24.5439C11.2194 24.5439 11.0215 24.4845 10.8632 24.3856C10.5268 24.1679 10.3487 23.7524 10.4279 23.3567L12.2285 14.393C12.2681 14.1556 12.4264 13.9379 12.6243 13.7796L20.0445 8.45684C20.3809 8.2194 20.8162 8.19961 21.1526 8.43706C21.489 8.65472 21.6671 9.07025 21.5879 9.46599L19.8071 18.4296C19.7675 18.6671 19.6092 18.9045 19.4113 19.043L11.9713 24.3658C11.7932 24.4845 11.5953 24.5439 11.3975 24.5439ZM14.0885 15.1647L12.8617 21.279L17.947 17.6381L19.1739 11.5041L14.0885 15.1647Z" fill="white"/>
<path d="M15 16.3918C15 16.5425 15.0297 16.6918 15.0874 16.831C15.1451 16.9703 15.2296 17.0968 15.3362 17.2033C15.4428 17.3099 15.5693 17.3945 15.7085 17.4521C15.8478 17.5098 15.997 17.5395 16.1477 17.5395C16.2984 17.5395 16.4477 17.5098 16.5869 17.4521C16.7261 17.3945 16.8527 17.3099 16.9592 17.2033C17.0658 17.0968 17.1503 16.9703 17.208 16.831C17.2657 16.6918 17.2954 16.5425 17.2954 16.3918C17.2954 16.2411 17.2657 16.0919 17.208 15.9526C17.1503 15.8134 17.0658 15.6869 16.9592 15.5803C16.8527 15.4737 16.7261 15.3892 16.5869 15.3315C16.4477 15.2738 16.2984 15.2441 16.1477 15.2441C15.997 15.2441 15.8478 15.2738 15.7085 15.3315C15.5693 15.3892 15.4428 15.4737 15.3362 15.5803C15.2296 15.6869 15.1451 15.8134 15.0874 15.9526C15.0297 16.0919 15 16.2411 15 16.3918Z" fill="white"/>
</svg>
