<svg width="32" height="32" viewBox="0 0 32 32" fill="none" xmlns="http://www.w3.org/2000/svg">
<path d="M5.33398 9.33333C5.33398 8.97971 5.47446 8.64057 5.72451 8.39052C5.97456 8.14048 6.3137 8 6.66732 8H25.334C25.5091 7.99997 25.6825 8.03444 25.8443 8.10144C26.0061 8.16843 26.1531 8.26664 26.2769 8.39045C26.4008 8.51427 26.499 8.66126 26.566 8.82304C26.633 8.98482 26.6675 9.15822 26.6675 9.33333C26.6675 9.50845 26.633 9.68184 26.566 9.84363C26.499 10.0054 26.4008 10.1524 26.2769 10.2762C26.1531 10.4 26.0061 10.4982 25.8443 10.5652C25.6825 10.6322 25.5091 10.6667 25.334 10.6667H6.66732C6.3137 10.6667 5.97456 10.5262 5.72451 10.2761C5.47446 10.0261 5.33398 9.68695 5.33398 9.33333ZM5.33398 16C5.33398 15.6464 5.47446 15.3072 5.72451 15.0572C5.97456 14.8071 6.3137 14.6667 6.66732 14.6667H25.334C25.6876 14.6667 26.0267 14.8071 26.2768 15.0572C26.5268 15.3072 26.6673 15.6464 26.6673 16C26.6673 16.3536 26.5268 16.6928 26.2768 16.9428C26.0267 17.1929 25.6876 17.3333 25.334 17.3333H6.66732C6.3137 17.3333 5.97456 17.1929 5.72451 16.9428C5.47446 16.6928 5.33398 16.3536 5.33398 16ZM5.33398 22.6667C5.33398 22.313 5.47446 21.9739 5.72451 21.7239C5.97456 21.4738 6.3137 21.3333 6.66732 21.3333H25.334C25.5091 21.3333 25.6825 21.3678 25.8443 21.4348C26.0061 21.5018 26.1531 21.6 26.2769 21.7238C26.4008 21.8476 26.499 21.9946 26.566 22.1564C26.633 22.3182 26.6675 22.4916 26.6675 22.6667C26.6675 22.8418 26.633 23.0152 26.566 23.177C26.499 23.3387 26.4008 23.4857 26.2769 23.6095C26.1531 23.7334 26.0061 23.8316 25.8443 23.8986C25.6825 23.9656 25.5091 24 25.334 24H6.66732C6.3137 24 5.97456 23.8595 5.72451 23.6095C5.47446 23.3594 5.33398 23.0203 5.33398 22.6667Z" fill="white"/>
</svg>
