<svg width="18" height="18" viewBox="0 0 18 18" fill="none" xmlns="http://www.w3.org/2000/svg">
<path d="M9.67 9.9H0.1V8.1H9.67H9.91076L9.74085 7.92943L7.23128 5.41014L8.5 4.14142L13.3586 9L8.5 13.8586L7.23128 12.5899L9.74085 10.0706L9.91076 9.9H9.67ZM2 1.9H1.9V2V5.9H0.1V2C0.1 1.49609 0.300178 1.01282 0.656497 0.656497C1.01282 0.300178 1.49609 0.1 2 0.1H16C17.0448 0.1 17.9 0.955228 17.9 2V16C17.9 17.0448 17.0448 17.9 16 17.9H2C1.49609 17.9 1.01282 17.6998 0.656497 17.3435C0.300178 16.9872 0.1 16.5039 0.1 16V12.1H1.9V16V16.1H2H16H16.1V16V2V1.9H16H2Z"/>
</svg>
