<svg width="18" height="18" viewBox="0 0 18 18" fill="none" xmlns="http://www.w3.org/2000/svg">
<path d="M6.3 9.9H1.8C0.81 9.9 2.10937e-08 10.71 0 11.7V16.2C0 17.19 0.81 18 1.8 18H6.3C7.29 18 8.1 17.19 8.1 16.2V11.7C8.1 10.71 7.29 9.9 6.3 9.9ZM6.3 16.2H1.8V11.7H6.3V16.2ZM16.2 9.9H11.7C10.71 9.9 9.9 10.71 9.9 11.7V16.2C9.9 17.19 10.71 18 11.7 18H16.2C17.19 18 18 17.19 18 16.2V11.7C18 10.71 17.19 9.9 16.2 9.9ZM16.2 16.2H11.7V11.7H16.2V16.2ZM6.3 0H1.8C0.81 0 2.10937e-08 0.81 0 1.8V6.3C0 7.29 0.81 8.1 1.8 8.1H6.3C7.29 8.1 8.1 7.29 8.1 6.3V1.8C8.1 0.81 7.29 2.10937e-08 6.3 0ZM6.3 6.3H1.8V1.8H6.3V6.3ZM16.2 0H11.7C10.71 0 9.9 0.81 9.9 1.8V6.3C9.9 7.29 10.71 8.1 11.7 8.1H16.2C17.19 8.1 18 7.29 18 6.3V1.8C18 0.81 17.19 2.10937e-08 16.2 0ZM16.2 6.3H11.7V1.8H16.2V6.3Z" fill="white"/>
</svg>
