<svg viewBox="0 0 48 48" fill="none" xmlns="http://www.w3.org/2000/svg">
<circle cx="24" cy="24" r="23.5" fill="url(#paint0_linear_161_712)" stroke="#3E4659"/>
<path d="M36.1018 21.2965C36.1018 14.5543 30.6359 9.08838 23.8937 9.08838C17.1514 9.08838 11.6855 14.5543 11.6855 21.2965C11.6855 26.539 14.9904 31.0078 19.6299 32.7377C18.2154 33.9441 17.316 35.7362 17.316 37.741C17.316 38.0515 17.4393 38.3492 17.6589 38.5688C17.8784 38.7883 18.1762 38.9117 18.4866 38.9117C18.7971 38.9117 19.0949 38.7883 19.3144 38.5688C19.5339 38.3492 19.6573 38.0515 19.6573 37.741C19.6573 35.4051 21.5577 33.5046 23.8937 33.5046C26.2296 33.5046 28.1301 35.4051 28.1301 37.741C28.1301 38.0515 28.2534 38.3492 28.4729 38.5688C28.6925 38.7883 28.9902 38.9117 29.3007 38.9117C29.6112 38.9117 29.9089 38.7883 30.1285 38.5688C30.348 38.3492 30.4713 38.0515 30.4713 37.741C30.4713 35.7362 29.572 33.9441 28.1575 32.7377C32.7969 31.0078 36.1018 26.539 36.1018 21.2965ZM23.8937 31.1633C18.4529 31.1633 14.0268 26.7373 14.0268 21.2965C14.0268 15.856 18.4529 11.4297 23.8937 11.4297C29.3345 11.4297 33.7605 15.856 33.7605 21.2965C33.7605 26.7373 29.3345 31.1633 23.8937 31.1633Z" fill="#22293D"/>
<path d="M27.4264 23.8783C26.9514 23.8783 26.545 24.1622 26.3614 24.5679C26.3628 24.5636 26.3634 24.5582 26.3648 24.5542C25.8828 25.4131 24.9366 26.0386 23.8837 26.0386C23.3801 26.0381 22.8859 25.9027 22.4524 25.6464C22.0189 25.3901 21.6621 25.0223 21.419 24.5813C21.4243 24.594 21.426 24.6084 21.4313 24.6211C21.3398 24.4138 21.19 24.2375 21.0002 24.1137C20.8104 23.9898 20.5887 23.9237 20.362 23.9234C20.0516 23.9234 19.7538 24.0468 19.5343 24.2663C19.3147 24.4858 19.1914 24.7836 19.1914 25.0941C19.1914 25.3422 19.2697 25.572 19.4018 25.7613C20.2875 27.323 21.9598 28.3799 23.8837 28.3799C25.8289 28.3799 27.5157 27.2982 28.3937 25.7071C28.5133 25.5312 28.5827 25.326 28.5945 25.1136C28.6062 24.9012 28.5599 24.6896 28.4604 24.5016C28.361 24.3135 28.2121 24.1562 28.03 24.0463C27.8478 23.9365 27.6391 23.8784 27.4264 23.8783Z" fill="#22293D"/>
<defs>
<linearGradient id="paint0_linear_161_712" x1="1.78814e-07" y1="24" x2="48" y2="24" gradientUnits="userSpaceOnUse">
<stop stop-color="#6066FF"/>
<stop offset="1" stop-color="#366EFF"/>
</linearGradient>
</defs>
</svg>
