<svg width="24" height="24" viewBox="0 0 24 24" fill="none" xmlns="http://www.w3.org/2000/svg">
<path d="M12 0C18.6273 0 24 5.37266 24 12C24 18.6273 18.6273 24 12 24C5.37266 24 0 18.6273 0 12C0 5.37266 5.37266 0 12 0ZM12 2C6.47734 2 2 6.47734 2 12C2 14.8513 3.19334 17.4233 5.10666 19.2453L8.498 15.202C9.0688 15.5986 9.70297 15.895 10.3733 16.0787L6.688 20.474C8.27911 21.4739 10.1208 22.003 12 22C13.7706 22.0029 15.51 21.5334 17.0387 20.64L13.2833 16.162C13.9742 16.0154 14.6344 15.7501 15.2347 15.378L18.6594 19.46C19.7114 18.523 20.5531 17.3737 21.1289 16.0879C21.7047 14.8021 22.0016 13.4089 22 12C22 6.47734 17.5227 2 12 2ZM12 5.33334C13.0623 5.33291 14.0949 5.68381 14.937 6.33137C15.779 6.97893 16.3833 7.8868 16.6557 8.91356C16.928 9.94033 16.8532 11.0283 16.4428 12.0081C16.0324 12.9879 15.3095 13.8045 14.3867 14.3307L14.3667 14.342L14.3447 14.3547C14.2938 14.3829 14.2425 14.4103 14.1907 14.4367L14.3667 14.342C13.6446 14.7497 12.8292 14.9636 12 14.9627C11.3779 14.9636 10.7616 14.8436 10.1853 14.6093L10.1787 14.6067C10.1193 14.5823 10.0604 14.5567 10.002 14.53L10.186 14.61C9.95952 14.5178 9.74044 14.4083 9.53069 14.2827C8.62543 13.7425 7.92246 12.9202 7.52969 11.942C7.13691 10.9637 7.07605 9.88359 7.35643 8.86741C7.63682 7.85122 8.24296 6.95515 9.08181 6.31673C9.92066 5.67831 10.9458 5.33284 12 5.33334ZM12 7.33334C11.6293 7.3316 11.2618 7.40311 10.9188 7.54378C10.5758 7.68444 10.2639 7.89149 10.0011 8.15303C9.73837 8.41457 9.52986 8.72545 9.38758 9.0678C9.24529 9.41016 9.17205 9.77725 9.17205 10.148C9.17205 10.5187 9.24529 10.8858 9.38758 11.2282C9.52986 11.5706 9.73837 11.8814 10.0011 12.143C10.2639 12.4045 10.5758 12.6116 10.9188 12.7522C11.2618 12.8929 11.6293 12.9644 12 12.9627C12.7442 12.9591 13.4567 12.6611 13.9817 12.1336C14.5067 11.6061 14.8014 10.8922 14.8014 10.148C14.8014 9.4038 14.5067 8.68988 13.9817 8.16241C13.4567 7.63494 12.7442 7.33685 12 7.33334Z" fill="white"/>
</svg>
