<svg width="24" height="24" viewBox="0 0 24 24" fill="none" xmlns="http://www.w3.org/2000/svg">
<path d="M16.4492 17.4545L16.4492 17.4545L12.0492 19.9395L12 19.9673L11.9508 19.9395L4.95084 15.9875L4.9 15.9588V15.9004V8.10043V8.04205L4.95084 8.01335L11.9508 4.06135L12 4.03359L12.0492 4.06135L19.0492 8.01335L19.1 8.04205V8.10043V16.4824C19.1 16.6006 19.1232 16.7177 19.1685 16.8269C19.2137 16.9361 19.28 17.0353 19.3636 17.1189C19.4471 17.2025 19.5464 17.2688 19.6556 17.3141C19.7648 17.3593 19.8818 17.3826 20 17.3826C20.1182 17.3826 20.2352 17.3593 20.3444 17.3141C20.4537 17.2688 20.5529 17.2025 20.6364 17.1189C20.72 17.0353 20.7863 16.9361 20.8315 16.8269C20.8768 16.7177 20.9 16.6006 20.9 16.4824V7.51549C20.8999 7.35619 20.8575 7.19977 20.7772 7.06221C20.6969 6.92464 20.5815 6.81086 20.4428 6.73249L12.4428 2.21551L12.4428 2.21549C12.3077 2.13914 12.1552 2.09902 12 2.09902C11.8448 2.09902 11.6923 2.13914 11.5572 2.21549L11.5572 2.21551L3.5572 6.73249C3.55719 6.73249 3.55718 6.7325 3.55717 6.73251C3.41836 6.81096 3.30289 6.92487 3.22257 7.06259C3.14223 7.20033 3.09994 7.35694 3.1 7.51639L3.1 7.51643L3.1 16.4844L16.4492 17.4545ZM16.4492 17.4545C16.6571 17.3371 16.9031 17.307 17.1332 17.371C17.3633 17.435 17.5585 17.5877 17.6759 17.7956C17.7934 18.0035 17.8234 18.2496 17.7594 18.4796C17.6955 18.7097 17.5427 18.9049 17.3348 19.0223C17.3348 19.0224 17.3348 19.0224 17.3348 19.0224L12.4428 21.7843L12.4428 21.7844M16.4492 17.4545L12.4428 21.7844M12.4428 21.7844C12.3077 21.8607 12.1552 21.9008 12 21.9008C11.8448 21.9008 11.6923 21.8607 11.5572 21.7844L11.5572 21.7843M12.4428 21.7844L11.5572 21.7843M11.5572 21.7843L3.5572 17.2674M11.5572 21.7843L3.5572 17.2674M3.5572 17.2674C3.41852 17.189 3.30312 17.0752 3.22279 16.9376C3.14248 16.8001 3.10011 16.6437 3.1 16.4844L3.5572 17.2674ZM8.1 12.0004C8.1 11.7617 8.19482 11.5328 8.3636 11.364C8.53239 11.1952 8.76131 11.1004 9 11.1004C9.23869 11.1004 9.46761 11.1952 9.6364 11.364C9.80518 11.5328 9.9 11.7617 9.9 12.0004C9.9 12.4158 10.0232 12.8218 10.2539 13.1671C10.4847 13.5125 10.8126 13.7816 11.1964 13.9406C11.5801 14.0995 12.0023 14.1411 12.4097 14.0601C12.817 13.979 13.1912 13.779 13.4849 13.4854C13.7786 13.1917 13.9786 12.8175 14.0596 12.4101C14.1407 12.0028 14.0991 11.5805 13.9401 11.1968C13.7812 10.8131 13.512 10.4851 13.1667 10.2543C12.8214 10.0236 12.4153 9.90043 12 9.90043C11.7613 9.90043 11.5324 9.80561 11.3636 9.63682C11.1948 9.46804 11.1 9.23912 11.1 9.00043C11.1 8.76173 11.1948 8.53281 11.3636 8.36403C11.5324 8.19525 11.7613 8.10043 12 8.10043C12.7713 8.10043 13.5254 8.32916 14.1667 8.7577C14.8081 9.18623 15.3079 9.79533 15.6031 10.508C15.8983 11.2206 15.9755 12.0048 15.8251 12.7613C15.6746 13.5178 15.3031 14.2127 14.7577 14.7581C14.2123 15.3036 13.5174 15.675 12.7609 15.8255C12.0043 15.976 11.2202 15.8987 10.5075 15.6036C9.7949 15.3084 9.18581 14.8085 8.75727 14.1672C8.32873 13.5258 8.1 12.7718 8.1 12.0004Z" fill="white" stroke="#22293D" stroke-width="0.2"/>
</svg>
