<svg width="18" height="20" viewBox="0 0 18 20" fill="none" xmlns="http://www.w3.org/2000/svg">
<path d="M13.4492 15.4545L13.4492 15.4545L9.04918 17.9395L9.00001 17.9673L8.95084 17.9395L1.95084 13.9875L1.9 13.9588V13.9004V6.10043V6.04205L1.95084 6.01335L8.95084 2.06135L9 2.03359L9.04916 2.06135L16.0492 6.01335L16.1 6.04205V6.10043V14.4824C16.1 14.6006 16.1232 14.7177 16.1685 14.8269C16.2137 14.9361 16.28 15.0353 16.3636 15.1189C16.4471 15.2025 16.5464 15.2688 16.6556 15.3141C16.7648 15.3593 16.8818 15.3826 17 15.3826C17.1182 15.3826 17.2352 15.3593 17.3444 15.3141C17.4537 15.2688 17.5529 15.2025 17.6364 15.1189C17.72 15.0353 17.7863 14.9361 17.8315 14.8269C17.8768 14.7177 17.9 14.6006 17.9 14.4824V5.51549C17.8999 5.35619 17.8575 5.19977 17.7772 5.06221C17.6969 4.92464 17.5815 4.81086 17.4428 4.73249L9.44283 0.215507L9.4428 0.215488C9.30771 0.139143 9.15517 0.0990234 9 0.0990234C8.84483 0.0990234 8.69229 0.139143 8.5572 0.215488L8.55717 0.215507L0.5572 4.73249C0.557189 4.73249 0.557178 4.7325 0.557167 4.73251C0.418365 4.81096 0.302893 4.92487 0.222567 5.06259C0.142234 5.20033 0.0999355 5.35694 0.1 5.51639L0.1 5.51643L0.1 14.4844L13.4492 15.4545ZM13.4492 15.4545C13.6571 15.3371 13.9031 15.307 14.1332 15.371C14.3633 15.435 14.5585 15.5877 14.6759 15.7956C14.7934 16.0035 14.8234 16.2496 14.7594 16.4796C14.6955 16.7097 14.5427 16.9049 14.3348 17.0223C14.3348 17.0224 14.3348 17.0224 14.3348 17.0224L9.44284 19.7843L9.4428 19.7844M13.4492 15.4545L9.4428 19.7844M9.4428 19.7844C9.30771 19.8607 9.15517 19.9008 9 19.9008C8.84483 19.9008 8.69229 19.8607 8.5572 19.7844L8.55717 19.7843M9.4428 19.7844L8.55717 19.7843M8.55717 19.7843L0.5572 15.2674M8.55717 19.7843L0.5572 15.2674M0.5572 15.2674C0.418516 15.189 0.303118 15.0752 0.222794 14.9376C0.142479 14.8001 0.100105 14.6437 0.1 14.4844L0.5572 15.2674ZM5.1 10.0004C5.1 9.76173 5.19482 9.53281 5.3636 9.36403C5.53239 9.19525 5.76131 9.10043 6 9.10043C6.23869 9.10043 6.46761 9.19525 6.6364 9.36403C6.80518 9.53281 6.9 9.76173 6.9 10.0004C6.9 10.4158 7.02316 10.8218 7.25391 11.1671C7.48466 11.5125 7.81264 11.7816 8.19637 11.9406C8.58009 12.0995 9.00233 12.1411 9.40969 12.0601C9.81705 11.979 10.1912 11.779 10.4849 11.4854C10.7786 11.1917 10.9786 10.8175 11.0596 10.4101C11.1407 10.0028 11.0991 9.58052 10.9401 9.19679C10.7812 8.81307 10.512 8.48509 10.1667 8.25434C9.82135 8.02359 9.41534 7.90043 9 7.90043C8.7613 7.90043 8.53239 7.80561 8.3636 7.63682C8.19482 7.46804 8.1 7.23912 8.1 7.00043C8.1 6.76173 8.19482 6.53281 8.3636 6.36403C8.53239 6.19525 8.7613 6.10043 9 6.10043C9.77135 6.10043 10.5254 6.32916 11.1667 6.7577C11.8081 7.18623 12.3079 7.79533 12.6031 8.50796C12.8983 9.22059 12.9755 10.0048 12.8251 10.7613C12.6746 11.5178 12.3031 12.2127 11.7577 12.7581C11.2123 13.3036 10.5174 13.675 9.76085 13.8255C9.00433 13.976 8.22017 13.8987 7.50753 13.6036C6.7949 13.3084 6.18581 12.8085 5.75727 12.1672C5.32873 11.5258 5.1 10.7718 5.1 10.0004Z"/>
</svg>
