<svg width="16" height="16" viewBox="0 0 16 16" fill="none" xmlns="http://www.w3.org/2000/svg">
<path d="M8 0L9.75997 1.4317L12 1.0718L12.8083 3.19167L14.9282 4L14.5683 6.24003L16 8L14.5683 9.75997L14.9282 12L12.8083 12.8083L12 14.9282L9.75997 14.5683L8 16L6.24003 14.5683L4 14.9282L3.19167 12.8083L1.0718 12L1.4317 9.75997L0 8L1.4317 6.24003L1.0718 4L3.19167 3.19167L4 1.0718L6.24003 1.4317L8 0Z" fill="#56FFFF"/>
<path d="M7.3999 11C7.2199 11 7.0999 10.94 6.9799 10.82L4.5799 8.42004C4.3399 8.18004 4.3399 7.82004 4.5799 7.58004C4.8199 7.34004 5.1799 7.34004 5.4199 7.58004L7.3399 9.50004L10.5199 5.24004C10.6999 5.00004 11.1199 4.94004 11.3599 5.12004C11.5999 5.30004 11.6599 5.72004 11.4799 5.96004L7.8799 10.76C7.7599 10.88 7.6399 11 7.3999 11Z" fill="black"/>
</svg>
