<svg width="32" height="32" viewBox="0 0 32 32" fill="none" xmlns="http://www.w3.org/2000/svg">
<path d="M16.25 28.0996C9.65 28.0996 4.25 22.7496 4.25 16.0996C4.25 9.49961 9.6 4.09961 16.25 4.09961C22.85 4.09961 28.25 9.44961 28.25 16.0996C28.2 22.6996 22.85 28.0996 16.25 28.0996ZM16.25 5.39961C10.3 5.39961 5.5 10.1996 5.5 16.0996C5.5 21.9996 10.3 26.8496 16.25 26.8496C22.15 26.8496 27 22.0496 27 16.0996C26.95 10.1996 22.15 5.39961 16.25 5.39961Z" fill="white"/>
<path d="M17.75 15.8504C17.45 15.6504 17.05 15.4504 16.6 15.2504C16.05 15.0004 15.7 14.8004 15.55 14.6504C15.35 14.4504 15.3 14.2504 15.3 14.0004C15.3 13.7004 15.4 13.4504 15.65 13.2504C15.9 13.0504 16.15 12.9504 16.5 12.9504C16.9 12.9504 17.2 13.1004 17.5 13.4004C17.7 13.6504 18.05 13.7004 18.3 13.5504C18.65 13.3504 18.75 12.9004 18.5 12.6004C18.35 12.4504 18.25 12.3004 18.1 12.2004C17.8 12.0004 17.45 11.8504 17 11.7504V11.1504C17 10.9004 16.8 10.6504 16.5 10.6504C16.25 10.6504 16 10.8504 16 11.1504V11.7504C15.7 11.8504 15.4 11.9504 15.2 12.1004C14.95 12.2504 14.75 12.4004 14.6 12.6004C14.45 12.8004 14.3 13.0004 14.2 13.2504C14.1 13.5004 14.05 13.7504 14.05 14.0004C14.05 14.5504 14.25 15.0504 14.6 15.5004C14.85 15.7504 15.3 16.1004 16.05 16.4004C16.4 16.5504 16.7 16.7004 16.9 16.8504C17.15 17.0004 17.3 17.1004 17.4 17.2004C17.65 17.4504 17.75 17.7504 17.75 18.1004C17.75 18.5004 17.6 18.8504 17.35 19.1004C17.05 19.3504 16.7 19.5004 16.3 19.5004C15.85 19.5004 15.55 19.4004 15.3 19.1504C15.15 19.0004 15 18.7504 14.85 18.4504C14.75 18.1504 14.4 18.0004 14.1 18.0504C13.7 18.1504 13.5 18.5504 13.6 18.9004C13.75 19.3504 14 19.7504 14.25 20.0004C14.65 20.4004 15.2 20.6504 15.95 20.7504V21.4004C15.95 21.6504 16.15 21.9004 16.45 21.9004C16.7 21.9004 16.95 21.7004 16.95 21.4004V20.7004C17.6 20.5504 18.1 20.2004 18.5 19.7004C18.9 19.2004 19.1 18.6504 19.1 18.0004C19.1 17.3504 18.9 16.8004 18.45 16.3504C18.25 16.2004 18.05 16.0504 17.75 15.8504V15.8504Z" fill="white"/>
</svg>
