<svg width="40" height="40" viewBox="0 0 40 40" fill="none" xmlns="http://www.w3.org/2000/svg">
<path d="M20 5C28.2842 5 35 11.7158 35 20C35 28.2842 28.2842 35 20 35C11.7158 35 5 28.2842 5 20C5 11.7158 11.7158 5 20 5ZM20 7.5C13.0967 7.5 7.5 13.0967 7.5 20C7.5 23.5642 8.99168 26.7792 11.3833 29.0566L15.6225 24.0025C16.336 24.4982 17.1287 24.8688 17.9666 25.0983L13.36 30.5925C15.3489 31.8424 17.651 32.5037 20 32.5C22.2133 32.5036 24.3875 31.9168 26.2983 30.8L21.6042 25.2025C22.4678 25.0192 23.293 24.6877 24.0433 24.2225L28.3242 29.325C29.6393 28.1537 30.6913 26.7171 31.4111 25.1098C32.1308 23.5026 32.5019 21.7611 32.5 20C32.5 13.0967 26.9033 7.5 20 7.5ZM20 11.6667C21.3278 11.6661 22.6186 12.1048 23.6712 12.9142C24.7238 13.7237 25.4792 14.8585 25.8196 16.142C26.1601 17.4254 26.0665 18.7854 25.5535 20.0102C25.0405 21.2349 24.1369 22.2556 22.9833 22.9133L22.9583 22.9275L22.9308 22.9433C22.8673 22.9786 22.8031 23.0128 22.7383 23.0458L22.9583 22.9275C22.0557 23.4372 21.0365 23.7044 20 23.7033C19.2224 23.7044 18.452 23.5545 17.7316 23.2617L17.7233 23.2583C17.6491 23.2279 17.5755 23.1959 17.5025 23.1625L17.7325 23.2625C17.4494 23.1472 17.1756 23.0104 16.9134 22.8533C15.7818 22.1781 14.9031 21.1503 14.4121 19.9274C13.9211 18.7046 13.8451 17.3545 14.1955 16.0843C14.546 14.814 15.3037 13.6939 16.3523 12.8959C17.4008 12.0979 18.6823 11.666 20 11.6667ZM20 14.1667C19.5366 14.1645 19.0773 14.2539 18.6485 14.4297C18.2197 14.6056 17.8299 14.8644 17.5014 15.1913C17.173 15.5182 16.9123 15.9068 16.7345 16.3348C16.5566 16.7627 16.4651 17.2216 16.4651 17.685C16.4651 18.1484 16.5566 18.6073 16.7345 19.0352C16.9123 19.4632 17.173 19.8518 17.5014 20.1787C17.8299 20.5056 18.2197 20.7644 18.6485 20.9403C19.0773 21.1161 19.5366 21.2055 20 21.2033C20.9302 21.1989 21.8209 20.8263 22.4771 20.167C23.1334 19.5077 23.5018 18.6153 23.5018 17.685C23.5018 16.7547 23.1334 15.8623 22.4771 15.203C21.8209 14.5437 20.9302 14.1711 20 14.1667Z"/>
</svg>
