<svg width="40" height="40" viewBox="0 0 40 40" xmlns="http://www.w3.org/2000/svg">
<path d="M28.3 27.15H21.7C18.3 27.15 15.525 24.375 15.525 20.975V20.525C15.525 17.125 18.3 14.35 21.7 14.35H32.05C32.75 14.35 33.3 14.9 33.3 15.6C33.3 16.3 32.75 16.85 32.05 16.85H21.7C19.675 16.85 18.025 18.5 18.025 20.525V20.975C18.025 23 19.675 24.65 21.7 24.65H28.3C29 24.65 29.55 25.2 29.55 25.9C29.55 26.6 29 27.15 28.3 27.15Z"/>
<path d="M20.15 20.6C20.15 21.0376 20.3238 21.4573 20.6333 21.7667C20.9427 22.0762 21.3624 22.25 21.8 22.25C22.2376 22.25 22.6573 22.0762 22.9667 21.7667C23.2762 21.4573 23.45 21.0376 23.45 20.6C23.45 20.1624 23.2762 19.7427 22.9667 19.4333C22.6573 19.1239 22.2376 18.95 21.8 18.95C21.3624 18.95 20.9427 19.1239 20.6333 19.4333C20.3238 19.7427 20.15 20.1624 20.15 20.6Z"/>
<path d="M28.575 35.925H12.25C9.625 35.925 7.5 33.8 7.5 31.175V10.775C7.5 8.15002 9.625 6.02502 12.25 6.02502H28.6C31.225 6.02502 33.35 8.15002 33.35 10.775V15.5C33.35 16.2 32.8 16.75 32.1 16.75C31.4 16.75 30.85 16.2 30.85 15.5V10.775C30.85 9.52502 29.85 8.52502 28.6 8.52502H12.25C11 8.52502 10 9.52502 10 10.775V31.175C10 32.425 11 33.425 12.25 33.425H28.6C29.85 33.425 30.85 32.425 30.85 31.175V20.35C30.85 19.65 31.4 19.1 32.1 19.1C32.8 19.1 33.35 19.65 33.35 20.35V31.2C33.325 33.8 31.2 35.925 28.575 35.925Z"/>
</svg>
