<svg width="14" height="14" viewBox="0 0 14 14" fill="none" xmlns="http://www.w3.org/2000/svg">
<path fill-rule="evenodd" clip-rule="evenodd" d="M13 7C13 10.3137 10.3137 13 7 13C3.68629 13 1 10.3137 1 7C1 3.68629 3.68629 1 7 1C10.3137 1 13 3.68629 13 7ZM14 7C14 10.866 10.866 14 7 14C3.13401 14 0 10.866 0 7C0 3.13401 3.13401 0 7 0C10.866 0 14 3.13401 14 7ZM6.3568 4.33293C6.3438 3.96888 6.6354 3.66669 6.99967 3.66669C7.36395 3.66669 7.65555 3.96888 7.64255 4.33293L7.51752 7.83367C7.50756 8.11248 7.27866 8.33335 6.99967 8.33335C6.72069 8.33335 6.49179 8.11248 6.48183 7.83367L6.3568 4.33293ZM7.66634 9.66669C7.66634 10.0349 7.36786 10.3334 6.99967 10.3334C6.63148 10.3334 6.33301 10.0349 6.33301 9.66669C6.33301 9.2985 6.63148 9.00002 6.99967 9.00002C7.36786 9.00002 7.66634 9.2985 7.66634 9.66669Z" fill="#B8C2CF"/>
</svg>
