<svg width="96" height="96" viewBox="0 0 96 96" fill="none" xmlns="http://www.w3.org/2000/svg">
<circle cx="48" cy="48" r="47.5" fill="url(#paint0_linear_65_1770)" stroke="#3E4659"/>
<path d="M72.2046 42.593C72.2046 29.1085 61.2728 18.1768 47.7883 18.1768C34.3039 18.1768 23.3721 29.1085 23.3721 42.593C23.3721 53.0779 29.9818 62.0156 39.2607 65.4754C36.4318 67.8882 34.633 71.4724 34.633 75.482C34.633 76.103 34.8796 76.6985 35.3187 77.1376C35.7578 77.5766 36.3533 77.8233 36.9743 77.8233C37.5952 77.8233 38.1907 77.5766 38.6298 77.1376C39.0689 76.6985 39.3155 76.103 39.3155 75.482C39.3155 70.8102 43.1165 67.0093 47.7883 67.0093C52.4602 67.0093 56.2611 70.8102 56.2611 75.482C56.2611 76.103 56.5078 76.6985 56.9468 77.1376C57.3859 77.5766 57.9814 77.8233 58.6024 77.8233C59.2233 77.8233 59.8188 77.5766 60.2579 77.1376C60.697 76.6985 60.9437 76.103 60.9437 75.482C60.9437 71.4724 59.1449 67.8882 56.3159 65.4754C65.5948 62.0156 72.2046 53.0779 72.2046 42.593ZM47.7883 62.3267C36.9067 62.3267 28.0546 53.4746 28.0546 42.593C28.0546 31.7121 36.9067 22.8593 47.7883 22.8593C58.6699 22.8593 67.522 31.7121 67.522 42.593C67.522 53.4746 58.6699 62.3267 47.7883 62.3267Z" fill="#22293D"/>
<path d="M54.8527 47.7565C53.9028 47.7565 53.0901 48.3245 52.7228 49.1359C52.7255 49.1272 52.7269 49.1165 52.7295 49.1085C51.7656 50.8263 49.8732 52.0772 47.7673 52.0772C46.7602 52.0763 45.7717 51.8054 44.9048 51.2929C44.0378 50.7803 43.3241 50.0447 42.8379 49.1626C42.8486 49.1881 42.852 49.2168 42.8627 49.2422C42.6796 48.8276 42.38 48.475 42.0004 48.2273C41.6208 47.9796 41.1774 47.8474 40.7241 47.8468C40.1031 47.8468 39.5076 48.0935 39.0686 48.5326C38.6295 48.9717 38.3828 49.5672 38.3828 50.1881C38.3828 50.6845 38.5393 51.144 38.8036 51.5227C40.5749 54.6459 43.9196 56.7598 47.7673 56.7598C51.6579 56.7598 55.0313 54.5964 56.7873 51.4143C57.0265 51.0625 57.1654 50.6521 57.1889 50.2273C57.2124 49.8025 57.1198 49.3793 56.9208 49.0032C56.7219 48.6271 56.4243 48.3123 56.0599 48.0927C55.6955 47.873 55.2782 47.7568 54.8527 47.7565Z" fill="#22293D"/>
<defs>
<linearGradient id="paint0_linear_65_1770" x1="3.57628e-07" y1="48" x2="96" y2="48" gradientUnits="userSpaceOnUse">
<stop stop-color="#6066FF"/>
<stop offset="1" stop-color="#366EFF"/>
</linearGradient>
</defs>
</svg>
