<svg width="22" height="16" viewBox="0 0 22 16" fill="none" xmlns="http://www.w3.org/2000/svg">
<path d="M2.44444 0H19.5556C20.9 0 22 1.10769 22 2.46154V13.5385C22 14.8923 20.9 16 19.5556 16H15.8889C14.6667 16 14.0556 13.5385 11 13.5385C7.94444 13.5385 7.94444 16 6.11111 16H2.44444C1.1 16 0 14.8923 0 13.5385V2.46154C0 1.10769 1.1 0 2.44444 0ZM6.11111 9.84615C7.45555 9.84615 8.55555 8.73846 8.55555 7.38462C8.55555 6.03077 7.45555 4.92308 6.11111 4.92308C4.76667 4.92308 3.66667 6.03077 3.66667 7.38462C3.66667 8.73846 4.76667 9.84615 6.11111 9.84615ZM15.8889 9.84615C17.2333 9.84615 18.3333 8.73846 18.3333 7.38462C18.3333 6.03077 17.2333 4.92308 15.8889 4.92308C14.5444 4.92308 13.4444 6.03077 13.4444 7.38462C13.4444 8.73846 14.5444 9.84615 15.8889 9.84615Z" fill="#5E67FF"/>
</svg>
